<svg xmlns="http://www.w3.org/2000/svg" height="180" width="180" viewBox="0 0 57 57" role="img" class="qrcode-svg"><path fill="#ffffff" d="M0,0 h57v57H0z" shape-rendering="crispEdges"/><path fill="#000000" d="M4 4h7v1H4zM12 4h1v1H12zM15 4h13v1H15zM30 4h1v1H30zM32 4h1v1H32zM35 4h2v1H35zM41 4h1v1H41zM44 4h1v1H44zM46,4 h7v1H46zM4 5h1v1H4zM10 5h1v1H10zM12 5h2v1H12zM15 5h2v1H15zM21 5h1v1H21zM23 5h1v1H23zM29 5h1v1H29zM31 5h5v1H31zM37 5h3v1H37zM42 5h3v1H42zM46 5h1v1H46zM52,5 h1v1H52zM4 6h1v1H4zM6 6h3v1H6zM10 6h1v1H10zM12 6h4v1H12zM17 6h4v1H17zM24 6h1v1H24zM26 6h1v1H26zM29 6h2v1H29zM32 6h1v1H32zM35 6h1v1H35zM37 6h1v1H37zM41 6h1v1H41zM43 6h2v1H43zM46 6h1v1H46zM48 6h3v1H48zM52,6 h1v1H52zM4 7h1v1H4zM6 7h3v1H6zM10 7h1v1H10zM13 7h3v1H13zM21 7h2v1H21zM26 7h1v1H26zM28 7h2v1H28zM31 7h1v1H31zM33 7h1v1H33zM36 7h1v1H36zM39 7h2v1H39zM43 7h1v1H43zM46 7h1v1H46zM48 7h3v1H48zM52,7 h1v1H52zM4 8h1v1H4zM6 8h3v1H6zM10 8h1v1H10zM13 8h2v1H13zM18 8h1v1H18zM21 8h2v1H21zM24 8h1v1H24zM26 8h5v1H26zM32 8h2v1H32zM35 8h1v1H35zM37 8h4v1H37zM46 8h1v1H46zM48 8h3v1H48zM52,8 h1v1H52zM4 9h1v1H4zM10 9h1v1H10zM12 9h1v1H12zM14 9h1v1H14zM16 9h4v1H16zM21 9h4v1H21zM26 9h1v1H26zM30 9h8v1H30zM40 9h1v1H40zM42 9h1v1H42zM46 9h1v1H46zM52,9 h1v1H52zM4 10h7v1H4zM12 10h1v1H12zM14 10h1v1H14zM16 10h1v1H16zM18 10h1v1H18zM20 10h1v1H20zM22 10h1v1H22zM24 10h1v1H24zM26 10h1v1H26zM28 10h1v1H28zM30 10h1v1H30zM32 10h1v1H32zM34 10h1v1H34zM36 10h1v1H36zM38 10h1v1H38zM40 10h1v1H40zM42 10h1v1H42zM44 10h1v1H44zM46,10 h7v1H46zM12 11h1v1H12zM17 11h1v1H17zM19 11h1v1H19zM22 11h2v1H22zM25 11h2v1H25zM30 11h2v1H30zM35 11h1v1H35zM39 11h4v1H39zM6 12h3v1H6zM10 12h1v1H10zM12 12h1v1H12zM16 12h5v1H16zM22 12h1v1H22zM24 12h8v1H24zM34 12h1v1H34zM40 12h1v1H40zM42 12h6v1H42zM50,12 h3v1H50zM4 13h2v1H4zM7 13h2v1H7zM11 13h2v1H11zM19 13h1v1H19zM21 13h2v1H21zM25 13h1v1H25zM28 13h1v1H28zM30 13h2v1H30zM33 13h1v1H33zM35 13h2v1H35zM38 13h3v1H38zM42 13h1v1H42zM46 13h3v1H46zM5 14h3v1H5zM10 14h5v1H10zM16 14h2v1H16zM19 14h3v1H19zM23 14h2v1H23zM27 14h1v1H27zM31 14h1v1H31zM34 14h1v1H34zM36 14h3v1H36zM40 14h1v1H40zM42 14h2v1H42zM47 14h1v1H47zM49 14h1v1H49zM51 14h1v1H51zM5 15h4v1H5zM14 15h1v1H14zM17 15h1v1H17zM19 15h4v1H19zM24 15h1v1H24zM27 15h1v1H27zM29 15h2v1H29zM34 15h1v1H34zM37 15h1v1H37zM39 15h1v1H39zM41 15h1v1H41zM45 15h2v1H45zM49 15h2v1H49zM4 16h1v1H4zM6 16h1v1H6zM8 16h4v1H8zM13 16h1v1H13zM17 16h2v1H17zM20 16h1v1H20zM22 16h1v1H22zM24 16h1v1H24zM26 16h1v1H26zM29 16h1v1H29zM36 16h2v1H36zM39 16h3v1H39zM43 16h2v1H43zM47 16h1v1H47zM50 16h2v1H50zM5 17h3v1H5zM9 17h1v1H9zM13 17h4v1H13zM19 17h3v1H19zM23 17h2v1H23zM26 17h1v1H26zM29 17h1v1H29zM31 17h1v1H31zM34 17h1v1H34zM42 17h2v1H42zM47 17h2v1H47zM50,17 h3v1H50zM4 18h2v1H4zM8 18h1v1H8zM10 18h2v1H10zM13 18h1v1H13zM17 18h1v1H17zM19 18h1v1H19zM21 18h1v1H21zM23 18h2v1H23zM28 18h2v1H28zM34 18h2v1H34zM37 18h3v1H37zM41 18h1v1H41zM43 18h2v1H43zM46 18h1v1H46zM49,18 h4v1H49zM4 19h1v1H4zM6 19h1v1H6zM8 19h2v1H8zM12 19h1v1H12zM14 19h2v1H14zM17 19h4v1H17zM23 19h3v1H23zM27 19h2v1H27zM30 19h2v1H30zM33 19h2v1H33zM38 19h1v1H38zM41 19h4v1H41zM46 19h1v1H46zM48 19h1v1H48zM50,19 h3v1H50zM5 20h1v1H5zM8 20h1v1H8zM10 20h2v1H10zM14 20h2v1H14zM17 20h2v1H17zM21 20h1v1H21zM23 20h2v1H23zM26 20h2v1H26zM29 20h1v1H29zM31 20h4v1H31zM36 20h3v1H36zM42 20h1v1H42zM45 20h3v1H45zM49 20h1v1H49zM51,20 h2v1H51zM6 21h1v1H6zM9 21h1v1H9zM15 21h3v1H15zM20 21h1v1H20zM23 21h1v1H23zM27 21h2v1H27zM31 21h6v1H31zM38 21h2v1H38zM41 21h3v1H41zM46 21h1v1H46zM48 21h3v1H48zM4 22h1v1H4zM7 22h1v1H7zM9 22h4v1H9zM15 22h3v1H15zM19 22h1v1H19zM21 22h1v1H21zM23 22h3v1H23zM27 22h1v1H27zM29 22h5v1H29zM35 22h1v1H35zM37 22h1v1H37zM39 22h1v1H39zM45 22h5v1H45zM51,22 h2v1H51zM5 23h3v1H5zM9 23h1v1H9zM11 23h1v1H11zM15 23h1v1H15zM18 23h1v1H18zM20 23h3v1H20zM25 23h1v1H25zM30 23h2v1H30zM38 23h6v1H38zM46 23h3v1H46zM51,23 h2v1H51zM4 24h1v1H4zM8 24h4v1H8zM13 24h1v1H13zM15 24h1v1H15zM17 24h2v1H17zM21 24h2v1H21zM24 24h2v1H24zM28 24h2v1H28zM31 24h1v1H31zM35 24h2v1H35zM41 24h4v1H41zM46 24h2v1H46zM50 24h1v1H50zM4 25h5v1H4zM11 25h5v1H11zM29 25h2v1H29zM35 25h1v1H35zM39 25h2v1H39zM44 25h3v1H44zM50 25h1v1H50zM4 26h9v1H4zM14 26h2v1H14zM19 26h4v1H19zM24 26h1v1H24zM26 26h7v1H26zM34 26h7v1H34zM42 26h1v1H42zM44,26 h9v1H44zM4 27h2v1H4zM8 27h1v1H8zM12 27h1v1H12zM14 27h2v1H14zM17 27h1v1H17zM19 27h1v1H19zM21 27h2v1H21zM24 27h3v1H24zM30 27h1v1H30zM35 27h1v1H35zM37 27h2v1H37zM42 27h3v1H42zM48 27h1v1H48zM52,27 h1v1H52zM4 28h5v1H4zM10 28h1v1H10zM12 28h1v1H12zM16 28h3v1H16zM20 28h1v1H20zM24 28h3v1H24zM28 28h1v1H28zM30 28h1v1H30zM33 28h1v1H33zM40 28h1v1H40zM44 28h1v1H44zM46 28h1v1H46zM48,28 h5v1H48zM4 29h2v1H4zM7 29h2v1H7zM12 29h3v1H12zM19 29h1v1H19zM21 29h3v1H21zM25 29h2v1H25zM30 29h1v1H30zM34 29h2v1H34zM41 29h1v1H41zM43 29h2v1H43zM48 29h1v1H48zM51,29 h2v1H51zM5 30h2v1H5zM8 30h6v1H8zM16 30h2v1H16zM19 30h2v1H19zM22 30h1v1H22zM25 30h6v1H25zM32 30h1v1H32zM34 30h1v1H34zM37 30h2v1H37zM40 30h9v1H40zM50 30h1v1H50zM52,30 h1v1H52zM4 31h3v1H4zM9 31h1v1H9zM11 31h2v1H11zM14 31h7v1H14zM23 31h1v1H23zM25 31h2v1H25zM32 31h1v1H32zM37 31h2v1H37zM42 31h1v1H42zM45 31h1v1H45zM47 31h1v1H47zM51,31 h2v1H51zM5 32h1v1H5zM7 32h1v1H7zM10 32h3v1H10zM14 32h2v1H14zM18 32h1v1H18zM21 32h2v1H21zM24 32h2v1H24zM27 32h1v1H27zM30 32h11v1H30zM42 32h1v1H42zM45 32h2v1H45zM49 32h1v1H49zM52,32 h1v1H52zM4 33h4v1H4zM12 33h1v1H12zM14 33h3v1H14zM18 33h1v1H18zM20 33h2v1H20zM24 33h5v1H24zM31 33h1v1H31zM34 33h1v1H34zM36 33h1v1H36zM38 33h3v1H38zM42 33h2v1H42zM45 33h1v1H45zM47 33h2v1H47zM4 34h3v1H4zM10 34h2v1H10zM14 34h3v1H14zM19 34h1v1H19zM21 34h1v1H21zM23 34h5v1H23zM29 34h1v1H29zM31 34h3v1H31zM35 34h5v1H35zM42 34h1v1H42zM45 34h2v1H45zM48 34h1v1H48zM50 34h2v1H50zM4 35h1v1H4zM7 35h1v1H7zM12 35h2v1H12zM15 35h1v1H15zM22 35h1v1H22zM25 35h3v1H25zM29 35h1v1H29zM31 35h3v1H31zM37 35h2v1H37zM40 35h2v1H40zM44 35h1v1H44zM47 35h4v1H47zM52,35 h1v1H52zM4 36h11v1H4zM17 36h2v1H17zM20 36h1v1H20zM22 36h7v1H22zM33 36h1v1H33zM35 36h3v1H35zM39 36h1v1H39zM44 36h1v1H44zM48 36h2v1H48zM51,36 h2v1H51zM8 37h1v1H8zM11 37h2v1H11zM14 37h1v1H14zM16 37h2v1H16zM19 37h2v1H19zM23 37h1v1H23zM25 37h1v1H25zM27 37h1v1H27zM30 37h5v1H30zM36 37h3v1H36zM41 37h2v1H41zM44 37h2v1H44zM47 37h2v1H47zM50 37h2v1H50zM8 38h1v1H8zM10 38h2v1H10zM15 38h1v1H15zM18 38h4v1H18zM23 38h1v1H23zM28 38h1v1H28zM30 38h1v1H30zM33 38h7v1H33zM42 38h1v1H42zM44 38h1v1H44zM46 38h1v1H46zM49 38h1v1H49zM4 39h2v1H4zM11 39h3v1H11zM15 39h4v1H15zM21 39h3v1H21zM25 39h1v1H25zM29 39h1v1H29zM31 39h1v1H31zM33 39h2v1H33zM38 39h1v1H38zM44 39h1v1H44zM49 39h3v1H49zM5 40h7v1H5zM14 40h2v1H14zM18 40h1v1H18zM21 40h2v1H21zM26 40h4v1H26zM34 40h1v1H34zM37 40h2v1H37zM40 40h2v1H40zM43 40h3v1H43zM50 40h1v1H50zM4 41h2v1H4zM8 41h2v1H8zM13 41h1v1H13zM18 41h5v1H18zM26 41h2v1H26zM31 41h2v1H31zM34 41h3v1H34zM42 41h2v1H42zM45 41h1v1H45zM48 41h2v1H48zM52,41 h1v1H52zM5 42h1v1H5zM9 42h5v1H9zM15 42h2v1H15zM19 42h2v1H19zM22 42h1v1H22zM24 42h1v1H24zM29 42h5v1H29zM35 42h1v1H35zM37 42h2v1H37zM44 42h2v1H44zM47 42h1v1H47zM51,42 h2v1H51zM5 43h3v1H5zM11 43h10v1H11zM23 43h2v1H23zM26 43h3v1H26zM31 43h1v1H31zM37 43h1v1H37zM39 43h2v1H39zM48 43h2v1H48zM51 43h1v1H51zM4 44h3v1H4zM10 44h1v1H10zM14 44h1v1H14zM16 44h2v1H16zM21 44h2v1H21zM24 44h1v1H24zM26 44h5v1H26zM34 44h1v1H34zM36 44h1v1H36zM41 44h1v1H41zM43 44h6v1H43zM51 44h1v1H51zM12 45h1v1H12zM17 45h1v1H17zM20 45h2v1H20zM24 45h3v1H24zM30 45h2v1H30zM33 45h5v1H33zM39 45h1v1H39zM44 45h1v1H44zM48 45h1v1H48zM4 46h7v1H4zM15 46h2v1H15zM19 46h1v1H19zM23 46h1v1H23zM26 46h1v1H26zM28 46h1v1H28zM30 46h2v1H30zM33 46h4v1H33zM39 46h3v1H39zM44 46h1v1H44zM46 46h1v1H46zM48 46h2v1H48zM51,46 h2v1H51zM4 47h1v1H4zM10 47h1v1H10zM14 47h6v1H14zM21 47h4v1H21zM26 47h1v1H26zM30 47h4v1H30zM35 47h1v1H35zM37 47h1v1H37zM41 47h4v1H41zM48 47h1v1H48zM51,47 h2v1H51zM4 48h1v1H4zM6 48h3v1H6zM10 48h1v1H10zM12 48h2v1H12zM16 48h1v1H16zM19 48h2v1H19zM22 48h3v1H22zM26 48h5v1H26zM33 48h1v1H33zM36 48h1v1H36zM39 48h1v1H39zM41 48h8v1H41zM50 48h1v1H50zM52,48 h1v1H52zM4 49h1v1H4zM6 49h3v1H6zM10 49h1v1H10zM12 49h1v1H12zM17 49h10v1H17zM28 49h1v1H28zM30 49h1v1H30zM34 49h2v1H34zM39 49h3v1H39zM43 49h1v1H43zM52,49 h1v1H52zM4 50h1v1H4zM6 50h3v1H6zM10 50h1v1H10zM12 50h2v1H12zM15 50h4v1H15zM22 50h5v1H22zM33 50h1v1H33zM35 50h1v1H35zM38 50h3v1H38zM42 50h1v1H42zM44 50h1v1H44zM47 50h1v1H47zM50,50 h3v1H50zM4 51h1v1H4zM10 51h1v1H10zM16 51h3v1H16zM20 51h3v1H20zM25 51h2v1H25zM28 51h1v1H28zM31 51h4v1H31zM36 51h1v1H36zM38 51h1v1H38zM41 51h1v1H41zM43 51h2v1H43zM47 51h1v1H47zM49 51h1v1H49zM52,51 h1v1H52zM4 52h7v1H4zM13 52h4v1H13zM19 52h1v1H19zM22 52h2v1H22zM25 52h2v1H25zM29 52h2v1H29zM32 52h3v1H32zM38 52h4v1H38zM44 52h1v1H44zM47,52 h6v1H47z" shape-rendering="crispEdges"/></svg>